<?xml version="1.0" encoding="UTF-8" standalone="no"?><!DOCTYPE svg PUBLIC "-//W3C//DTD SVG 1.1//EN" "http://www.w3.org/Graphics/SVG/1.1/DTD/svg11.dtd"><svg width="100%" height="100%" viewBox="0 0 564 445" version="1.1" xmlns="http://www.w3.org/2000/svg" xmlns:xlink="http://www.w3.org/1999/xlink" xml:space="preserve" xmlns:serif="http://www.serif.com/" style="fill-rule:evenodd;clip-rule:evenodd;stroke-linejoin:round;stroke-miterlimit:2;"><path id="just-chillin" d="M290.339,335.617c0.151,0.754 0.466,2.627 0.239,4.383c-0.194,1.505 -0.712,2.992 -1.463,4.311c-0.359,0.629 -2.405,4.224 -7.138,5.57c-4.661,1.326 -8.367,-0.784 -8.998,-1.143c-4.542,-2.587 -5.544,-6.992 -5.715,-7.743c-0.864,-3.801 -4.409,-23.824 -5.021,-36.359c-0.103,-2.119 -0.147,-2.148 0.515,-4.161c0.198,-0.603 1.341,-4.076 5.159,-6.026c0.582,-0.298 3.939,-2.013 8.144,-0.632c4.075,1.337 5.738,4.593 6.027,5.158c0.983,1.925 1.172,4.344 1.146,4.011c-0.086,-1.097 0.259,3.322 2.443,13.538c2.181,10.199 4.277,17.812 4.662,19.093Zm0,0c-0.057,-0.283 -0.091,-0.408 -0.064,-0.309c0.149,0.552 0.162,0.634 0.064,0.309Zm57.28,58.929l0.004,0.011c0.125,-0.455 0.593,-2.035 1.463,-3.282c0.321,-0.461 2.175,-3.119 5.913,-3.803c0.57,-0.105 3.857,-0.706 7.077,1.536c3.12,2.173 3.702,5.36 3.803,5.913c0.424,2.319 0.258,2.343 -0.259,4.645c-0.18,0.801 -0.287,5.48 -2.312,11.579c-0.71,2.139 -3.866,11.904 -13.305,13.918c-9.354,1.997 -16.006,-5.465 -16.978,-6.5c-3.762,-4.004 -7.193,-9.527 -11.137,-17.882c-0.488,-1.034 -3.652,-8.228 -5.59,-13.878c-2.505,-7.304 -3.311,-10.175 -3.563,-11.071c-2.561,-9.114 -4.078,-15.217 -6.53,-26.623c-0.199,-0.924 -4.049,-19.937 -6.624,-38.083c-3.493,-24.62 -5.095,-42.514 -6.34,-55.935c-0.176,-1.896 -0.301,-1.918 0.154,-3.768c0.925,-3.762 3.823,-5.467 4.319,-5.759c3.508,-2.063 6.801,-1.204 7.377,-1.054c3.745,0.977 5.462,3.826 5.76,4.32c1.195,1.982 1.02,2.068 1.456,4.339c0.106,0.554 2.802,14.914 6.447,32.285c0.53,2.527 2.792,13.311 7.092,31.489c1.671,7.065 3.206,13.4 7.787,30.303c0.285,1.053 0.799,2.952 3.673,13.127c1.506,5.332 1.592,5.304 3.081,10.64c1.554,5.573 1.63,5.548 3.241,11.108c0.248,0.858 1.389,4.796 3.371,10.648c0.212,0.625 0.419,1.216 0.62,1.777Zm0,-0c0.08,-0.366 0.055,-0.253 0,-0Zm171.997,-139.015c-0.18,0.25 -1.374,1.892 -2.906,2.934c-0.52,0.354 -3.52,2.394 -7.694,1.627c-0.637,-0.117 -4.307,-0.79 -6.782,-4.414c-2.399,-3.511 -1.741,-7.075 -1.627,-7.694c0.494,-2.68 0.639,-2.665 2.253,-4.858c6.55,-8.896 16.851,-19.272 17.237,-19.666c1.291,-1.316 1.268,-1.377 2.935,-2.168c0.5,-0.238 3.384,-1.606 6.91,-0.377c0.274,0.095 1.779,0.62 3.129,1.832c0.419,0.376 2.834,2.544 3.041,6.35c0.064,1.172 -0.093,2.381 -0.483,3.488c-0.723,2.053 -0.912,1.962 -2.275,3.656c-3.831,4.762 -10,12.864 -13.578,19.017c-0.038,0.066 -0.136,0.23 -0.16,0.273Zm-0,0c0.028,-0.039 0.031,-0.044 0.006,-0.006c-0.014,0.022 -0.014,0.021 -0.006,0.006Zm-321.621,49.75c0.129,0.981 0.237,2.09 0.413,4.017c0.411,4.506 0.368,4.506 0.627,9.024c0.096,1.663 0.216,3.325 0.286,4.99c0.055,1.3 0.061,2.602 0.092,3.903c0.167,7.236 0.957,13.309 -1.865,17.096c-2.821,3.787 -6.772,4.365 -7.461,4.465c-0.688,0.101 -4.874,0.971 -8.425,-2.143c-2.502,-2.195 -3.984,-6.231 -6.683,-15.838c-0.352,-1.252 -0.712,-2.502 -1.033,-3.762c-0.41,-1.612 -0.772,-3.237 -1.159,-4.856c-1.049,-4.398 -1.091,-4.386 -1.995,-8.814c-0.912,-4.469 -0.872,-4.475 -1.391,-9.003c-1.529,-13.333 -1.813,-17.091 -3.536,-35.949c-1.743,-19.079 -1.574,-19.092 -4.766,-55.76c-0.251,-2.889 -0.09,-3.627 -0.023,-3.935c0.742,-3.399 3.395,-4.979 3.842,-5.245c3.212,-1.912 6.181,-1.167 6.707,-1.035c3.376,0.846 4.97,3.401 5.245,3.842c1.063,1.703 0.924,1.775 1.359,3.735c3.484,15.708 10.299,47.195 10.353,47.452c0.431,2.067 3.648,17.628 4.839,23.392c3.29,-6.609 16.137,-12.835 27.579,-10.197c11.369,2.621 19.131,18.118 24.588,32.734c4.845,12.975 4.847,35.735 3.654,39.154c-0.775,2.219 -4.176,6.07 -8.502,6.054c-4.03,-0.015 -8.796,-4.145 -10.582,-6.933c-1.406,-2.194 -4.464,-13.81 -5.638,-21.827c-0.453,-3.091 -4.858,-23.831 -10.295,-24.944c-6.173,-1.265 -12.876,5.19 -16.23,10.383Zm-89.872,-210.548c9.725,10.583 19.119,25.498 25.119,42.764c3.576,10.287 7.719,26.278 5.991,45.677c-0.225,2.519 -1.425,15.99 -7.983,30.592c-5.59,12.447 -13.267,21.704 -14.099,22.738c-3.011,3.745 -6.955,7.679 -7.593,8.315c-7.325,7.305 -13.166,11.407 -14.868,12.631c-12.148,8.73 -22.506,12.917 -22.639,12.973c-12.754,5.459 -21.955,6.199 -27.652,6.17c-26.038,-0.133 -42.122,-18.709 -41.059,-41.641c0.72,-15.531 8.736,-28.532 12.297,-33.905c2.125,-3.207 5.299,-6.998 5.789,-7.583c2.383,-2.846 2.441,-2.795 2.643,-3.046c0.072,-0.09 4.163,-5.433 9.359,-6.101c5.202,-0.668 8.671,2.031 9.277,2.503c0.607,0.472 4.098,3.188 4.76,8.339c0.205,1.594 -1.329,7.73 -3.196,10.198c-0.154,0.204 -2.523,4.09 -4.644,8.923c-0.185,0.42 -7.015,14.2 -3.888,23.031c0.966,2.729 2.294,2.659 3.185,2.82c0.273,0.049 3.659,0.933 11.106,-1.739c4.202,-1.507 7.885,-3.499 14.194,-7.546c6.453,-4.139 12.398,-8.787 15.446,-11.382c0.64,-0.545 4.618,-3.829 9.735,-9.669c1.945,-2.22 9.55,-10.993 13.674,-23.911c1.754,-5.495 4.518,-16.382 2.703,-31.932c-2.307,-19.76 -11.227,-37.369 -18.668,-47.036c-0.484,-0.629 -0.951,-1.212 -1.4,-1.751c-2.58,1.048 -5.63,2.237 -9.326,3.606c-0.119,0.044 -8.556,3.236 -18.768,5.884c-6.584,1.707 -12.535,2.396 -13.347,2.491c-3.473,0.409 -7.912,-1.078 -9.214,-1.967c-1.3,-0.887 -2.46,-2.038 -3.324,-3.353c-0.007,-0.011 -1.839,-4.505 -1.839,-4.511c0.022,-1.628 0.301,-3.273 0.069,-4.885c-0.166,-1.149 0.438,-2.109 1.874,-4.342c0.692,-1.076 4.084,-3.855 8.984,-5.475c8.873,-2.934 16.074,-6.357 22.849,-9.675c5.518,-2.703 5.468,-2.798 11.709,-5.932c4.308,-2.163 4.307,-2.158 8.647,-4.254c0.143,-0.069 0.128,-0.101 5.958,-2.665c1.302,-0.572 6.331,-2.632 9.158,-3.664c10.769,-3.927 16.173,-5.444 21.756,-6.763c6.326,-1.495 7.528,-1.369 9.294,-1.785c0.733,-0.172 4.931,-1.16 9.278,1.539c4.34,2.694 5.324,6.899 5.495,7.632c0.171,0.732 1.155,4.938 -1.538,9.277c-0.83,1.337 -1.929,2.544 -3.205,3.463c-2.129,1.534 -2.179,1.503 -4.736,2.104c-0.38,0.09 -0.379,0.094 -4.547,1.795c-0.98,0.4 -4.535,1.851 -12.021,5.518c-4.831,2.366 -4.926,2.53 -10.795,5.53Zm241.874,27.99l-1.171,0.243c-0.271,0.056 -2.352,0.579 -12.688,2.335c-0.152,0.026 -1.862,0.317 -1.895,0.316c-1.702,-0.041 -3.435,0.206 -5.104,-0.124c-1.616,-0.32 -3.194,-0.944 -4.602,-1.798c-1.365,-0.826 -2.645,-1.932 -3.589,-3.166c-0.943,-1.233 -1.707,-2.748 -2.072,-4.236c-0.365,-1.488 -0.385,-3.167 -0.119,-4.693c0.267,-1.526 0.89,-3.101 1.717,-4.465c0.853,-1.409 1.963,-2.693 3.247,-3.726c2.378,-1.913 2.462,-1.82 5.361,-2.776c6.406,-2.112 6.371,-2.21 12.801,-4.247c2.029,-0.642 2.851,-0.908 3.906,-1.218c-1.724,-11.482 -8.678,-58.076 -11.22,-80.178c-0.011,-0.1 -0.142,-1.234 -0.141,-1.243c0.097,-1.331 -0.058,-2.705 0.293,-3.992c0.161,-0.589 1.086,-3.98 4.651,-6.042c0.544,-0.315 3.68,-2.128 7.792,-1.013c0.589,0.159 3.985,1.08 6.042,4.651c1.307,2.269 1.073,2.372 1.468,4.962c0.841,5.53 2.693,17.692 12.015,68.883l1.633,8.876c1.374,-0.246 2.917,-0.515 4.694,-0.82c8.548,-1.467 17.094,-2.496 18.076,-2.696c0.713,-0.145 4.803,-0.977 8.921,1.754c4.114,2.728 4.941,6.817 5.085,7.529c0.144,0.712 0.971,4.802 -1.755,8.912c-0.84,1.267 -1.936,2.401 -3.195,3.252c-2.503,1.693 -2.67,1.349 -5.578,2.159c-6.531,1.819 -15.759,4.555 -21.4,6.264l6.585,35.792c2.614,13.93 2.619,14.375 6.267,31.831c1.699,8.129 1.778,8.109 3.54,16.225c0.467,2.147 1.837,8.18 2.677,11.734c0.319,-0.696 0.577,-1.255 0.751,-1.615l1.96,-4.042c0.626,-1.289 0.496,-1.338 0.562,-1.443c0.627,-1.004 1.076,-2.147 1.886,-3.011c0.37,-0.395 2.504,-2.67 6.163,-2.801c3.777,-0.135 6.124,2.067 6.531,2.449c2.669,2.504 2.782,5.622 2.802,6.164c0.043,1.183 -0.309,2.351 -0.557,3.509c-0.089,0.418 -0.322,0.792 -0.448,1.201c-0.252,0.817 -0.978,4.266 -3.333,11.902c-2.946,9.554 -5.852,16.994 -12.615,20.173c-0.163,0.077 -10.714,5.568 -19.105,-6.905c-4.385,-6.517 -7.557,-16.774 -8.418,-19.485c-0.421,-1.325 -1.49,-4.453 -3.926,-14.2c-0.51,-2.041 -4.187,-18.218 -7.14,-35.378c-1.179,-6.852 -4.176,-25.366 -7.355,-45.803Zm124.044,187.478c0.548,1.64 1.135,3.394 1.764,5.27c2.839,8.469 2.947,8.43 6.281,18.257c0.865,2.552 0.835,2.558 1.351,5.203c1.327,6.802 1.772,13.048 1.713,15.805c-0.073,3.354 -1.991,9.101 -8.086,10.925c-7.688,2.301 -11.549,-1.353 -13.19,-3.401c-2.121,-2.646 -7.295,-10.601 -9.826,-18.798c-1.339,-4.335 -2.396,-9.294 -5.09,-25.053c-1.271,-7.436 -2.918,-20.464 -4.444,-28.42l0.003,0.01c-0.177,-1.398 -0.626,-2.789 -0.53,-4.195c0.298,-4.346 3.095,-6.795 3.58,-7.219c3.386,-2.966 7.202,-2.698 7.865,-2.651c3.761,0.264 6.106,2.396 6.941,3.275c3.677,-4.629 8.457,-8.733 14.71,-10.946c16.5,-5.838 30.215,5.949 32.806,8.117c10.141,8.483 13.139,22.201 14.26,27.19c2.311,10.29 3.186,18.391 6.211,23.833c0.056,0.1 1.843,3.303 2.199,4.961c0.345,1.608 0.351,3.315 0.058,4.933c-0.294,1.618 -0.9,3.215 -1.788,4.599c-0.007,0.011 -2.164,2.733 -3.532,3.681c-1.368,0.948 -3.017,1.649 -4.675,2.005c-1.608,0.345 -3.315,0.351 -4.933,0.057c-1.619,-0.293 -3.215,-0.899 -4.599,-1.787c-2.749,-1.764 -2.614,-1.959 -4.454,-4.657c-7.041,-10.328 -9.091,-23.693 -11.775,-32.808c-0.24,-0.816 -1.629,-4.513 -2.459,-6.922c-0.819,-2.379 -3.59,-8.43 -9.215,-8.326c-2.23,0.041 -10.12,4.159 -11.146,17.062Zm-261.801,-152.955c-2.738,3.73 -6.071,7.17 -10.164,10.071c-3.029,2.145 -8.952,5.664 -15.2,6.494c-12.093,1.607 -23.979,-5.956 -30.663,-20.156c-0.949,-2.016 -7.503,-15.619 -3.54,-33.91c0.303,-1.4 2.328,-5.254 5.186,-5.731c1.509,-0.251 3.413,0.168 5.449,0.937c1.477,0.559 4.172,5.109 3.308,8.22c-0.067,0.239 -1.528,12.145 5.172,23.137c3.564,5.849 8.439,9.217 11.939,8.55c1.318,-0.252 4.448,-1.852 6.453,-3.35c8.945,-6.681 11.957,-19.145 14.139,-31.406c0.052,-0.292 0.608,-3.455 0.616,-3.49c0.131,-0.568 0.262,-1.138 0.462,-1.685c1.594,-4.36 5.26,-5.864 5.889,-6.121c4.296,-1.762 7.879,-0.068 8.494,0.223c4.198,1.986 5.362,5.776 5.562,6.426c0.171,0.557 0.273,1.133 0.372,1.707c0.511,2.941 2.411,19.536 5.588,29.051c1.899,5.688 3.746,7.577 4.41,7.646c0.403,0.042 0.768,0.001 1.142,-0.043c1.454,0.105 2.956,-0.064 4.363,0.319c1.365,0.371 2.672,1.04 3.793,1.902c1.121,0.861 2.102,1.951 2.81,3.174c0.007,0.01 1.422,4.134 1.422,4.14c-0.102,1.454 0.072,2.955 -0.309,4.361c-0.37,1.365 -1.038,2.673 -1.899,3.794c-0.862,1.121 -1.953,2.102 -3.177,2.81c-0.368,0.213 -2.15,1.244 -5.08,1.529c-8.664,0.842 -19.021,-2.555 -25.305,-15.774c-0.434,-0.914 -0.844,-1.856 -1.232,-2.825Zm57.176,-33.277l0.067,-0.045c2.292,1.73 5.769,3.359 16.526,5.848c18.222,4.216 44.623,7.995 53.594,28.262c2.912,6.578 3.398,13.736 2.086,20.931c-3.145,17.241 -16.87,27.709 -20.239,30.277c-1.987,1.515 -5.157,3.391 -5.619,3.665c-20.775,12.299 -50.247,17.301 -73.336,12.369c-0.3,-0.064 -0.653,-0.149 -3.74,-0.85c-0.994,-0.226 -4.768,-1.094 -6.887,-4.946c-0.682,-1.24 -2.05,-4.332 -1.384,-8.353c0.673,-4.064 3.736,-6.106 4.938,-6.852c1.202,-0.747 2.558,-1.365 3.966,-1.516c2.61,-0.278 2.631,-0.071 5.334,0.334c1.163,0.173 3.737,0.456 4.063,0.483c17.87,1.451 41.89,-4.961 55.55,-16.258c1.706,-1.411 10.395,-7.647 10.128,-16.19c-0.054,-1.72 0.039,-3.343 -4.149,-6.015c-10.651,-6.795 -34.513,-9.268 -49.103,-16.825c-3.474,-1.799 -14.7,-7.86 -16.119,-20.995c-1.224,-11.34 6.205,-23.746 20.477,-32.55c6.441,-3.972 16.634,-8.329 27.051,-8.269c0.174,0.001 1.888,0.011 2.175,0.08c1.299,0.313 2.682,0.386 3.896,0.944c0.555,0.255 3.753,1.725 5.204,5.588c0.221,0.589 1.192,3.86 -0.28,7.859c-1.14,3.099 -4.221,4.154 -4.793,4.369c-2.542,0.954 -3.44,1.269 -6.132,1.618c-10.034,1.303 -21.625,10.75 -23.17,16.524c-0.057,0.215 -0.089,0.383 -0.104,0.513Zm-45.212,243.258c0.532,0.29 3.585,1.954 4.745,5.912c0.357,1.216 0.491,2.525 0.357,3.786c-0.266,2.511 -0.458,2.479 -1.676,4.693c-0.361,0.656 -0.314,0.839 -1.632,4.353c-1.016,2.71 -1.414,3.729 -3.076,7.079c-6.931,13.968 -13.749,20.974 -15.574,22.885c-6.691,7.007 -12.444,10.741 -16.166,12.964c-8.16,4.875 -14.529,6.787 -16.05,7.27c-5.908,1.875 -11.182,2.855 -15.01,3.405c-0.324,0.047 -6.409,0.866 -12.939,0.787c-7.28,-0.088 -12.419,-0.729 -17.503,-1.761c-11.952,-2.428 -19.846,-6.561 -24.788,-9.571c-7.305,-4.448 -18.699,-12.999 -27.219,-29.224c-10.197,-19.42 -12.589,-43.638 -6.439,-67.123c6.254,-23.879 21.292,-46.489 45.656,-59.28c2.239,-1.176 2.238,-1.259 4.749,-1.58c1.597,-0.203 3.263,-0.069 4.818,0.349c1.553,0.418 3.061,1.138 4.338,2.116c0.01,0.008 3.296,3.732 3.298,3.738c0.527,1.575 1.364,3.079 1.576,4.727c0.206,1.596 0.073,3.263 -0.345,4.817c-0.419,1.554 -1.14,3.062 -2.119,4.339c-2.004,2.612 -2.321,2.285 -5.024,4.164c-16.969,11.798 -25.54,31.096 -27.14,48.884c-1.478,16.436 2.772,33.249 12.661,44.06c6.653,7.272 13.558,9.812 16.918,11.015c4.402,1.577 8.691,2.293 14.527,2.826c1.104,0.1 5.749,0.464 9.687,0.41c5.716,-0.079 9.561,-0.321 16.338,-1.994c0.532,-0.131 5.523,-1.216 12.338,-4.829c0.381,-0.202 3.881,-1.928 9.528,-6.363c6.939,-5.45 11.613,-11.498 12.768,-12.767c1.956,-2.148 3.522,-4.032 4.193,-4.84c0.488,-0.586 0.266,-0.728 0.759,-1.311c0.843,-0.998 1.511,-2.176 2.531,-2.994c0.466,-0.373 3.152,-2.525 7.166,-2.1c1.977,0.209 2.003,0.206 3.749,1.158Zm182.688,28.894c0.635,-0.663 1.282,-1.311 2.058,-1.789c1.238,-0.761 2.658,-1.269 4.092,-1.501c1.434,-0.232 2.942,-0.198 4.356,0.134c0.013,0.003 4.102,1.853 4.107,1.857c1.016,1.1 2.261,2.027 3.046,3.302c0.761,1.238 1.269,2.658 1.501,4.092c0.232,1.434 0.198,2.942 -0.134,4.356c-0.725,3.09 -1.053,2.973 -2.923,5.538c-7.936,10.889 -21.508,12.996 -33.094,2.443c-4.345,-3.958 -11.968,-12.836 -19.475,-34.313c-1.055,-3.017 -2.342,-6.673 -4.669,-15.526c-0.172,-0.653 -2.538,-10.549 -3.629,-15.47c-1.11,-5.011 -2.868,-12.611 -7.523,-35.948c-7.559,-37.898 -11.762,-67.568 -11.759,-67.716c0.017,-1.186 -0.189,-2.397 0.054,-3.558c0.111,-0.53 0.753,-3.591 3.784,-5.615c0.465,-0.311 3.13,-2.092 6.862,-1.338c0.531,0.107 3.613,0.73 5.615,3.784c0.19,0.288 0.814,1.241 1.513,4.036c0.844,3.38 4.177,16.716 11.32,42.042l6.438,22.604l10.095,34.993c0.422,1.466 3.549,12.557 4.52,16.252c1.258,4.789 3.457,12.335 3.761,13.34c4.849,16.027 8.353,21.679 10.084,24.001Zm13.827,-56.598c-0.915,0.138 -1.821,0.367 -2.744,0.413c-4.079,0.204 -7.117,-1.596 -7.66,-1.918c-0.544,-0.322 -3.58,-2.12 -5.361,-5.797c-0.403,-0.83 -0.677,-1.718 -0.955,-2.598c-0.032,-0.103 -2.688,-10.542 -3.03,-11.951c-0.05,-0.204 -1.067,-4.721 -1.071,-4.758c-0.013,-0.096 -0.386,-3.833 -0.389,-3.876c-0.158,-2.694 -0.12,-5.174 -0.113,-5.624c0.028,-1.764 0.066,-3.604 0.086,-4.328c0.13,-4.657 2.241,-7.973 2.626,-8.578c1.984,-3.117 3.994,-4.129 5.624,-4.518c4.905,-1.171 9.883,4.033 10.324,4.516c1.847,2.021 1.802,2.07 3.04,4.513c1.553,3.065 1.621,3.028 3.074,6.14c0.548,1.176 0.586,1.157 1.067,2.365c0.939,2.362 2.031,6.024 2.717,8.759c1.256,5.004 2.673,10.519 2.674,10.527c0.142,0.911 0.365,1.815 0.411,2.736c0.203,4.081 -1.596,7.117 -1.918,7.66c-0.322,0.544 -2.12,3.58 -5.797,5.361l-2.605,0.956Zm-6.42,-87.786c4.123,-6.504 12.751,-8.437 19.255,-4.314c6.505,4.124 8.438,12.752 4.314,19.256l-0.254,0.402c-4.124,6.504 -12.752,8.437 -19.256,4.313c-6.505,-4.123 -8.437,-12.751 -4.314,-19.255l0.255,-0.402Zm145.381,4.567c0.186,0.561 1.265,3.798 -0.515,7.378c-0.55,1.106 -1.321,2.131 -2.251,2.942c-1.801,1.571 -1.974,1.302 -4.153,2.282c-5.076,2.283 -13.127,6.641 -18.116,8.929c-1.767,0.81 -4.004,0.752 -4.358,0.743c-1.42,-0.038 -2.855,-0.38 -4.153,-0.955c-1.299,-0.576 -2.52,-1.411 -3.498,-2.436c-0.978,-1.025 -1.856,-2.376 -2.373,-3.714c-0.516,-1.339 -0.765,-2.907 -0.727,-4.318c0.039,-1.411 0.382,-2.851 0.957,-4.149c0.576,-1.299 1.408,-2.517 2.434,-3.502c2.342,-2.249 2.553,-1.982 5.638,-2.996c5.444,-1.787 12.914,-4.617 18.87,-6.279c1.87,-0.522 1.879,-0.607 3.815,-0.467c0.581,0.042 3.928,0.284 6.516,3.239c0.201,0.23 1.312,1.499 1.914,3.303Zm-288.923,-8.042c7.737,0 14.018,6.279 14.018,14.013c0,7.733 -6.281,14.012 -14.018,14.012c-7.737,-0 -14.018,-6.279 -14.018,-14.012c-0,-7.734 6.281,-14.013 14.018,-14.013Z" style="fill:#fff;"/></svg>