<?xml version="1.0" encoding="UTF-8" standalone="no"?>
<!DOCTYPE svg PUBLIC "-//W3C//DTD SVG 1.1//EN" "http://www.w3.org/Graphics/SVG/1.1/DTD/svg11.dtd">
<svg width="100%" height="100%" viewBox="0 0 1770 434" version="1.1" xmlns="http://www.w3.org/2000/svg" xmlns:xlink="http://www.w3.org/1999/xlink" xml:space="preserve" xmlns:serif="http://www.serif.com/" style="fill-rule:evenodd;clip-rule:evenodd;stroke-linejoin:round;stroke-miterlimit:2;">
    <g transform="matrix(1,0,0,1,-286,-900)">
        <g transform="matrix(0.583788,0,0,0.583788,81.9826,462.807)">
            <g id="aubrey-mccarthy">
                <path d="M403.961,1126.82C398.493,1126.61 392.966,1126.12 387.759,1125.2C387.505,1125.15 378.826,1123.4 370.594,1119.02C344.356,1105.05 343.458,1073.62 368.033,1057.29C374.608,1052.92 381.486,1050.83 387.201,1050.7C393.301,1050.56 397.535,1054.02 398.262,1054.62C399.603,1055.71 400.803,1057.04 401.673,1058.54C401.692,1058.57 403.124,1062.84 403.249,1063.21C403.404,1063.67 403.031,1063.6 393.758,1074.82C394.056,1074.8 394.3,1074.78 394.462,1074.78C396.707,1074.73 402.445,1074.59 418.665,1071.28C436.336,1008.87 451.197,970.369 453.767,963.548C476.355,903.59 493.693,871.494 500.318,859.331C528.495,807.598 552.706,782.753 570.424,769.463C573.299,767.307 593.316,751.704 618.031,749.549C627.283,748.743 655.885,749.276 670.986,788.3C683.165,819.771 686.789,874.812 682.393,974.133C682.011,982.772 681.525,991.98 680.961,1001.6C682.593,1001.22 684.294,1000.83 686.068,1000.42C716.827,993.372 728.57,991.148 745.307,988.134C758.2,985.812 767.627,984.32 769.516,984.018C770.147,983.917 786.61,982.765 787.922,982.722C788.733,982.695 807.316,982.655 811.423,982.936C825.747,983.919 834.352,984.93 834.498,984.926C834.711,984.92 834.708,984.901 837.149,984.655C838.316,984.538 845.007,983.864 851.169,988.914C853.062,990.466 854.7,992.407 855.859,994.563C859.671,1001.65 857.671,1008.21 857.324,1009.34C855.051,1016.8 849.2,1019.95 848.185,1020.5C844.137,1022.67 844.006,1022.42 839.432,1022.89C837.878,1023.05 837.913,1023.18 836.442,1023.69C827.93,1026.63 819.65,1029.82 818.199,1030.37C815.334,1031.47 812.326,1032.24 797.48,1037.59C797.305,1037.65 791.358,1039.4 782.51,1042.2C778.943,1043.33 777.823,1043.27 759.908,1047.72C757.015,1048.44 755.154,1048.9 723.829,1056.99C703.185,1062.32 697.504,1064.01 676.349,1069.79C671.806,1131.59 666.549,1195.18 665.585,1229.15C665.256,1240.77 665.075,1247.69 666.558,1276.18C668.257,1308.84 672.241,1368.99 690.369,1385.76C694.945,1389.99 700.866,1390.87 710.416,1388.65C713.351,1388.5 716.313,1387.79 719.221,1388.21C720.551,1388.4 728.213,1389.5 733.684,1396.74C734.519,1397.84 739.331,1404.2 738.003,1413.48C736.717,1422.47 730.544,1427.13 729.472,1427.94C725.14,1431.22 724.955,1430.98 719.684,1432.29C703.076,1436.4 659.499,1442.45 636.401,1384.34C623.717,1352.42 619.294,1307.42 615.951,1255.2C613.981,1224.43 617.078,1158.46 619.696,1085.38C614.181,1086.91 608.086,1088.59 600.412,1090.67C558.61,1102.04 558.619,1102.08 542.556,1106.01C526.035,1110.06 508.968,1113.97 482.439,1118.85C479.8,1119.34 472.049,1120.84 460.822,1122.49C450.452,1155.24 444.127,1178.85 441.719,1187.28C418.784,1267.63 412.391,1316.25 412.38,1316.28C411.632,1318.72 411.342,1321.35 410.136,1323.6C406.409,1330.55 399.96,1332.5 398.842,1332.84C391.032,1335.2 384.938,1331.91 383.88,1331.34C376.951,1327.6 374.982,1321.16 374.641,1320.05C373.207,1315.36 373.672,1315.27 373.961,1310.38C377.318,1253.49 389.439,1192.33 393.367,1172.8C393.43,1172.48 397.168,1154.36 403.961,1126.82ZM621.824,1016.3C622.498,988.123 622.86,960.17 622.614,933.939C622.551,927.161 622.342,854.768 612.974,820.347C607.128,824.386 599.018,831.558 588.688,844.299C581.032,853.741 560.926,879.943 532.258,939.07C531.287,941.072 513.644,976.317 489.548,1039.77C487.686,1044.67 485.878,1049.52 484.125,1054.28C489.112,1052.84 495.869,1050.88 505.71,1048.05C523.857,1042.82 532.918,1040.15 546.637,1036.46C566.475,1031.13 588.521,1024.98 621.824,1016.3ZM827.664,1237.09C822.694,1244.41 815.235,1254.39 806.434,1262.17C801.865,1266.21 785.29,1280.67 759.734,1280.19C740.045,1279.81 727.85,1268.08 726.282,1266.65C716.305,1257.6 711.201,1246.88 707.829,1237.57C707.414,1236.43 704.968,1228.35 703.983,1221.73C702.629,1212.62 702.364,1206.19 702.582,1196.73C702.786,1187.87 703.325,1183.01 703.456,1181.82C705.179,1166.26 707.956,1152.63 709.026,1147.45C709.112,1147.04 712.114,1136.37 714.07,1130.67C714.395,1129.73 716.401,1123.88 718.301,1118.9C719.212,1116.51 719.693,1113.91 721.042,1111.73C721.658,1110.74 725.216,1105.01 732.828,1103.13C733.996,1102.84 740.686,1101.19 747.685,1105.45C748.682,1106.06 754.466,1109.58 756.288,1117.24C756.599,1118.55 755.724,1118.62 757.515,1134C758.82,1145.2 758.779,1145.2 759.474,1150.27C759.926,1153.57 760.28,1165.92 763.295,1183.48C763.418,1184.2 764.397,1192.4 766.573,1201.15C767.319,1204.15 767.172,1204.18 769.221,1211.7C769.455,1212.56 769.475,1212.57 770.991,1217.22C778.706,1213.65 786.789,1204.87 792.429,1198.45C792.978,1197.83 798.064,1190.87 798.586,1190.13C801.654,1185.77 804.846,1181.04 808.199,1176.34C808.121,1175.67 807.692,1168.71 807.756,1164.85C807.855,1158.88 807.936,1154.5 809.935,1139.04C810.56,1134.21 814.949,1111.9 815.22,1110.89C815.474,1109.94 819.788,1096.63 820.189,1095.39C822.557,1088.09 821.135,1087.15 826.706,1081.88C828.482,1080.2 830.589,1078.79 832.861,1077.88C833.994,1077.43 840.238,1074.94 848.102,1078.3C849.176,1078.76 855.693,1081.54 858.135,1088.9C859.34,1092.53 857.905,1092.75 858.905,1096.44C862.734,1110.56 862.924,1110.51 863.163,1111.76C863.303,1112.48 865.276,1124.12 867.791,1136.06C868.602,1139.9 869.219,1144.28 871.036,1152.41C871.395,1154.02 871.576,1155.52 872.61,1160.35C872.741,1160.96 873.124,1163.46 873.936,1167.27C874.598,1170.38 874.811,1176.78 878.656,1189.49C879.166,1189.2 879.599,1188.94 879.69,1188.86C880.03,1188.56 879.905,1188.45 880.259,1188.16C882.516,1186.32 884.462,1184 887.034,1182.62C888.21,1181.99 894.984,1178.37 903.625,1180.94C904.943,1181.34 912.545,1183.61 916.94,1191.81C921.198,1199.76 919.001,1207.12 918.619,1208.4C917.785,1211.2 915.956,1213.59 914.55,1216.15C914.398,1216.43 914.112,1216.61 913.953,1216.88C913.57,1217.53 913.947,1217.69 910.4,1225.63C910.356,1225.73 908.882,1229.5 904.732,1235.86C903.843,1237.22 901.762,1240.66 896.599,1245.65C894.425,1247.75 892.601,1249.42 888.227,1251.94C867.194,1264.08 842.391,1259.3 827.664,1237.09ZM763.903,1217.64L763.52,1217.61C763.605,1217.66 763.719,1217.65 763.804,1217.7L763.89,1217.78L763.903,1217.64ZM865.843,1216.27C864.979,1217.8 864.468,1219.23 863.818,1220.7L865.843,1216.27ZM950.368,1131.72C945.659,1136.78 940.425,1143.12 937.28,1149.2C936.786,1150.16 936.688,1150.58 936.744,1150.27C936.853,1149.66 936.065,1154.06 933.916,1157.4C933.285,1158.38 929.649,1164.04 921.953,1165.76C914.013,1167.52 908.182,1163.78 907.171,1163.13C900.541,1158.87 899.071,1152.31 898.817,1151.17C897.266,1144.24 900.62,1132.49 901.068,1130.92C905.772,1114.44 915.267,1099.08 923.722,1087.18C925.766,1084.31 930.815,1078.37 931.453,1077.62C935.654,1072.68 939.831,1068.14 943.848,1064.03C943.725,1062.43 943.571,1060.44 943.379,1057.94C942.704,1049.21 942.742,1048.74 941.981,1034.74C941.487,1025.64 941.608,1004.52 941.623,1001.9C941.634,999.926 941.686,999.928 942.296,977.253C942.703,962.126 942.875,962.138 944.342,931.641C945.032,917.296 944.999,917.302 945.07,916.401C945.079,916.29 945.328,913.717 946.856,897.488C947.492,890.733 949.286,874.741 949.257,874.661C948.357,872.197 947.048,869.845 946.56,867.267C946.35,866.158 946.799,864.99 947.229,863.946C947.589,863.072 949.262,859.011 956.416,856.507C957.815,856.018 967.197,852.735 974.931,855.695C982.048,858.42 985.159,864.511 985.69,865.551C986.007,866.172 987.011,868.136 988.144,873.909C991.372,890.342 991.402,890.332 994.384,906.813C995.404,912.447 995.489,912.427 996.24,918.103C996.754,921.99 1002.38,964.526 1002.63,966.699C1002.72,967.435 1006.11,999.146 1006.13,999.366C1006.91,1008.64 1007.3,1014.14 1007.5,1017.31C1018.45,1012.21 1026.8,1009.89 1032.79,1008.5C1060.87,1002.01 1079.35,1009.71 1085.26,1012.37C1105.21,1021.36 1117.85,1037.67 1125.24,1058.58C1131.86,1077.33 1130.94,1095.13 1130.77,1098.34C1129.8,1117.26 1123.68,1148.28 1090.16,1188.84C1082.32,1198.32 1077.13,1203.47 1067.97,1212.86C1049.69,1231.61 1024.76,1252.49 1006.19,1262.39C1005.04,1265.11 1003.36,1267.64 1001.35,1269.79C994.171,1277.46 985.295,1277.76 983.749,1277.81C982.203,1277.86 973.329,1278.15 965.66,1270.98C963.298,1268.77 961.305,1266.07 959.963,1263.12C957.464,1257.65 957.749,1257.51 957.577,1251.49C957.133,1235.94 956.525,1211.01 955.554,1189.89C955.311,1184.6 955.381,1184.6 954.742,1177.49C952.644,1154.15 952.589,1153.19 950.368,1131.72ZM1006.31,1201.33C1014.58,1194.64 1024,1186.09 1033.5,1175.74C1033.64,1175.58 1047.44,1159.87 1056.64,1142.77C1077.36,1104.26 1066.81,1085.08 1065.02,1081.22C1061.29,1073.18 1059.27,1073.02 1056.48,1072.42C1055.7,1072.25 1053,1071.66 1046.51,1072.56C1045.34,1072.72 1040.62,1073.37 1032.27,1076.12C1030.69,1076.64 1022.69,1079.05 1008.27,1086.9C1008.06,1096.17 1007.81,1107.03 1007.56,1114.74C1006.79,1139.06 1006.67,1139.05 1006.18,1163.37C1005.84,1180.42 1005.81,1180.41 1005.82,1181.27C1005.82,1183.51 1006.15,1196.1 1006.18,1197.39C1006.2,1198.18 1006.24,1199.55 1006.31,1201.33ZM1176.73,1108.25C1178.94,1109.27 1180.36,1110.42 1180.79,1110.77C1185.19,1114.36 1184.36,1115.07 1187.67,1119.68C1197.33,1133.15 1214.89,1140.97 1234.82,1144.16C1248.1,1080.94 1305.5,1041.38 1344.89,1048.11C1364.82,1051.51 1373.11,1064.86 1375.81,1068.81C1400.27,1104.63 1392.58,1142.45 1358.1,1166.23C1341.03,1178 1317.81,1185.95 1292.91,1189.25C1293.51,1191.56 1294.22,1193.92 1295.03,1196.32C1295.42,1197.48 1295.9,1198.77 1296.28,1199.78C1297.71,1201.04 1303.33,1205.98 1314.57,1208.02C1333.97,1211.53 1355.93,1202.14 1375.46,1174.68C1385.41,1160.68 1393.18,1144.58 1399.11,1129.61C1401.7,1108.06 1407.41,1086.04 1417.37,1073.25C1418.4,1071.93 1424.47,1064.13 1433.98,1060.46C1435.99,1059.68 1447.8,1055.14 1460.95,1061.93C1462.87,1062.92 1474.11,1068.73 1477.77,1083.08C1477.99,1083.94 1479.15,1088.53 1478.66,1094.13C1478.6,1094.77 1478.39,1097.09 1477.05,1102.03C1473.04,1116.79 1468.72,1129.87 1464.47,1141.24C1463.19,1155.14 1463.45,1170.58 1466.57,1181.79C1467.23,1184.19 1467.91,1185.82 1468.43,1186.88C1478.42,1188.38 1488.23,1186.72 1498.25,1171.19C1504.32,1161.79 1508.68,1149.21 1511.22,1136.83C1501.85,1127.87 1494.86,1118.43 1492.14,1106.05C1485.55,1076.03 1510.51,1051.1 1538.72,1054.56C1551.71,1056.16 1569.85,1065.1 1575.19,1089.11C1576.67,1095.73 1577.54,1103.49 1577.73,1111.96C1589.86,1122.37 1604.19,1135.53 1616.52,1151.18C1639.46,1180.28 1670.58,1236.31 1634.08,1320.79C1607.26,1382.86 1525.84,1395.73 1497.19,1399.41C1488.29,1400.55 1469.68,1403.02 1419.63,1403.55C1289.73,1404.91 1229.58,1384.48 1050.45,1404.48C1044.86,1405.11 1038.89,1406.05 1038.69,1406.04C1036.25,1405.89 1033.74,1406.2 1031.38,1405.58C1030.3,1405.3 1024.08,1403.67 1020.25,1397.17C1019.66,1396.18 1016.29,1390.46 1018.26,1382.93C1020.17,1375.63 1025.71,1372.36 1026.67,1371.8C1030.92,1369.29 1031.11,1369.7 1036,1369.02C1055.26,1366.35 1064.63,1364.56 1092.06,1361.09C1238.04,1342.61 1294.03,1357.25 1421.84,1352.15C1460.74,1350.6 1489.99,1348.35 1518.4,1340.7C1573.75,1325.8 1580.76,1300.97 1582.35,1296.88C1602.53,1244.71 1589.44,1211.24 1564.54,1183.86C1552.42,1213.75 1531.33,1240.15 1498.67,1249.73C1492.03,1251.67 1475.01,1255.95 1451.43,1250.9C1438.99,1248.23 1425.59,1241.1 1415.24,1226.54C1347.97,1299.63 1262.77,1267.35 1243.12,1227.04C1240.63,1221.95 1235.15,1206.24 1232.98,1187.98C1218.84,1185.38 1205.29,1181.07 1193.17,1174.88C1193.23,1175.43 1193.3,1176 1193.36,1176.58C1193.5,1177.78 1194.81,1198.83 1193.66,1221.94C1193.06,1234.12 1192.89,1234.11 1192.74,1244.18C1192.57,1254.78 1186.13,1260.93 1185.01,1262C1177.59,1269.07 1168.85,1268.91 1167.33,1268.88C1157.14,1268.69 1151.02,1262.28 1149.98,1261.18C1147.78,1258.88 1145.98,1256.12 1144.83,1253.16C1144.51,1252.34 1142.84,1248.05 1143.14,1242.21C1144.08,1224.2 1147.22,1208.78 1147.49,1178.88C1147.5,1177.54 1147.63,1177.54 1148.31,1162.15C1148.7,1153.16 1149.18,1148.92 1148.59,1127.95C1148.5,1124.8 1148.45,1124.8 1148.49,1124.58C1148.85,1122.19 1148.8,1119.71 1149.57,1117.42C1149.91,1116.39 1151.94,1110.33 1158.08,1106.8C1158.1,1106.79 1164.46,1104.66 1164.47,1104.66C1166.7,1104.89 1169.02,1104.7 1171.16,1105.36C1173.38,1106.05 1175.23,1107.11 1176.73,1108.25ZM1294.91,1141.2C1308.16,1137.84 1319.97,1132.75 1328.53,1126.26C1330.35,1124.89 1338.36,1118.6 1338.53,1112.37C1338.62,1108.63 1336.32,1104.28 1334.23,1101.12C1330.57,1102.03 1323.42,1104.66 1314.36,1112.86C1307.53,1119.04 1299.79,1128.57 1294.91,1141.2ZM1746.06,1028.93C1742.01,1027.55 1738.23,1026.1 1734.69,1024.63C1726.05,1021.03 1717.1,1015.75 1715.63,1014.88C1673.18,989.878 1647.47,951.557 1629.59,921.719C1627.59,918.382 1627.46,918.392 1626.74,914.573C1626.52,913.425 1625.28,906.809 1629.66,900.276C1630.33,899.276 1634.18,893.531 1642.21,891.98C1643.36,891.758 1649.99,890.477 1656.51,894.898C1660.37,897.515 1660.06,897.87 1662.83,901.626C1683.67,929.916 1709.65,959.691 1745.46,974.506C1745.46,970.131 1745.46,964.904 1745.45,956.919C1745.43,949.667 1745.23,949.67 1745.44,942.42C1746.2,916.183 1746.81,891.988 1748.63,852.599C1748.88,847.223 1748.67,847.13 1750.7,842.15C1752,838.969 1753.99,836.013 1756.39,833.556C1758.78,831.107 1761.68,829.054 1764.83,827.696C1764.85,827.684 1775.14,825.457 1775.16,825.459C1778.66,826.122 1782.36,826.128 1785.68,827.453C1788.87,828.731 1791.84,830.712 1794.31,833.116C1796.75,835.509 1798.8,838.422 1800.13,841.576C1800.52,842.482 1801.81,845.546 1802.39,853.66L1808.83,941.013C1808.92,942.27 1809.04,945.74 1810.77,984.697C1828.18,983.378 1849.31,979.079 1874.55,969.454C1916.23,953.557 1961.74,888.474 1985.52,844.982C1989,838.619 1991.99,832.791 1994.53,827.534C1996.01,815.891 1997.58,806.14 1999.21,798.823C2001.49,788.625 2005.98,770.765 2022.81,762.837C2046.19,751.825 2076.52,769.109 2072.99,803.034C2072.25,810.224 2069.75,822.496 2059.29,844.687C2054.37,888.636 2049.97,963.207 2047.69,1041.04C2045.56,1114.05 2046.38,1156.2 2049.05,1196.44C2049.98,1210.35 2052.74,1274.27 2069.82,1339.85C2073.83,1355.22 2080.49,1390.17 2107.41,1450.65C2109.8,1456.02 2109.88,1455.98 2110.03,1456.47C2110.89,1459.44 2112.36,1462.3 2112.63,1465.39C2113.48,1474.92 2108.2,1481.2 2107.29,1482.28C2100.91,1489.88 2092.54,1490.59 2091.08,1490.71C2081.56,1491.51 2075.28,1486.28 2074.19,1485.37C2069.71,1481.64 2070.1,1481.26 2067.17,1476.22C2046.95,1441.57 2028.36,1404.83 2012.92,1359.97C2012.87,1359.82 2006.44,1340.11 2000.05,1311.73C1996.59,1296.36 1988.81,1260.33 1983.89,1202.74C1983.84,1202.13 1982.09,1180.62 1981.18,1149.17C1979.76,1099.88 1981.17,1025.75 1984.52,957.118C1934.98,1012.78 1900.02,1022.06 1888.41,1025.64C1859.51,1034.57 1834.37,1038.31 1812.65,1038.79C1812.8,1045.05 1813.07,1058.99 1814.44,1116.83C1814.59,1122.96 1814.56,1122.96 1815.3,1165.08C1815.3,1165.18 1815.42,1182.06 1815.52,1195.53C1815.58,1202.79 1815.58,1202.78 1815.39,1210.04C1815.03,1223.67 1815.08,1223.66 1814.48,1237.29C1813.69,1255 1813.71,1255 1812.71,1272.7C1812.32,1279.61 1811.77,1289.61 1811.77,1289.66C1811.76,1290.4 1811.82,1291.13 1811.84,1291.86C1811.89,1293.41 1812.2,1302.29 1805.03,1309.96C1797.86,1317.63 1788.98,1317.93 1787.43,1317.99C1785.89,1318.04 1777.01,1318.34 1769.34,1311.17C1766.97,1308.96 1764.98,1306.26 1763.63,1303.32C1762.25,1300.29 1761.97,1296.86 1761.31,1293.59C1761.24,1293.24 1761.46,1293.23 1760.96,1289.15C1756.45,1252.1 1756.59,1252.02 1755.24,1239.05C1753.82,1225.46 1753.88,1225.46 1752.73,1211.84C1752.11,1204.6 1752.12,1204.6 1751.77,1197.34C1750.63,1174.2 1750.55,1174.21 1749.69,1151.06C1748.88,1129.02 1748.77,1129.03 1746.61,1052.16C1746.29,1040.76 1746.15,1034.66 1746.06,1028.93ZM2698.88,1155C2699.83,1159.13 2700.72,1163.54 2701.07,1166.94C2702.49,1180.93 2703.19,1192.73 2702.77,1212.57C2702.7,1216.01 2702.07,1226.32 2702.04,1226.54C2701.9,1227.46 2699.86,1237.72 2699.57,1238.89C2699.54,1239.03 2698.1,1244.38 2697.59,1245.77C2697.54,1245.9 2697.49,1246.03 2697.43,1246.15C2697.35,1246.34 2697.4,1246.35 2697.36,1246.55L2697.35,1246.44C2694.01,1251.96 2694,1259.08 2690.66,1264.6C2688.99,1267.37 2685.8,1269.01 2682.88,1270.38C2682.85,1270.39 2673.19,1272.8 2673.18,1272.8C2669.88,1272.28 2666.43,1272.38 2663.3,1271.23C2660.26,1270.12 2657.42,1268.34 2655.03,1266.15C2652.65,1263.97 2650.63,1261.29 2649.26,1258.36C2646.92,1253.37 2646.98,1253.28 2646.81,1247.78C2646.76,1246.27 2644.94,1240.01 2644.43,1237.62C2642.96,1230.74 2642.14,1227.53 2642.11,1227.32C2641.97,1226.39 2642.04,1226.38 2640.77,1215.73C2640.38,1212.49 2640.42,1212.5 2640.03,1209.26C2638.67,1198.12 2636.01,1179.98 2635.29,1175.39C2634.41,1169.86 2633.97,1157.43 2633.12,1146.88C2632.8,1142.9 2632.86,1137.27 2631.23,1121.17C2630.35,1112.39 2630.48,1111.41 2630.59,1110.57C2631.06,1107.17 2632.27,1103.81 2634.01,1100.85C2635.76,1097.88 2638.11,1095.18 2640.87,1093.1C2640.89,1093.08 2650.52,1088.4 2650.53,1088.4C2654.05,1088.21 2657.6,1087.35 2661.08,1087.85C2664.48,1088.34 2667.83,1089.56 2670.79,1091.3C2671.45,1091.69 2672.1,1092.11 2672.74,1092.56C2677.18,1092.59 2681.57,1093.84 2693.14,1094.24C2694.25,1094.28 2699.77,1094.47 2706.99,1094.46C2709.34,1094.45 2709.34,1094.38 2711.69,1094.5C2713.73,1094.6 2721.16,1094.84 2726.8,1094.32C2729.11,1094.11 2734.17,1093.67 2740.34,1091.74C2743.27,1090.82 2748.7,1088.29 2759.43,1084.16C2759.68,1080.88 2759.91,1077.64 2760.14,1074.47C2760.55,1068.71 2760.99,1066.81 2763.33,1044.46C2764.11,1037.02 2764.91,1032.3 2767.23,1011.6C2767.86,1006.03 2770.56,986.436 2772.93,959.664C2773.1,957.761 2773.97,952.885 2775.77,938.396C2776.07,935.98 2776.8,931.218 2778.05,920.2C2778.13,919.522 2778.92,912.546 2779.2,911.743C2781.79,904.329 2787.96,901.448 2789.02,900.954C2796.48,897.468 2802.94,899.833 2804.07,900.248C2811.41,902.941 2814.35,909.021 2814.86,910.072C2815.34,911.061 2815.84,912.107 2818,923.44C2819.66,932.153 2821.05,939.698 2823.52,957.747C2824.12,962.116 2826.53,997.933 2826.93,1018.11C2827.37,1040.36 2827.27,1045.93 2827.22,1048.35C2827.14,1053.14 2827.05,1057.13 2826.98,1060.47C2833.68,1058.26 2843.91,1054.81 2854.14,1050.54L2854.11,1050.56C2857.29,1049.56 2860.34,1047.94 2863.65,1047.57C2866.87,1047.22 2870.21,1047.56 2873.31,1048.46C2876.42,1049.36 2879.42,1050.87 2881.95,1052.89C2881.97,1052.91 2888.43,1060.54 2888.44,1060.56C2889.43,1063.73 2891.04,1066.78 2891.4,1070.08C2891.74,1073.3 2891.41,1076.63 2890.51,1079.74C2889.6,1082.84 2888.1,1085.84 2886.08,1088.38C2885.43,1089.2 2883.42,1091.72 2875.87,1096.55C2865.94,1102.9 2854.37,1109.32 2844.89,1114.45C2842.71,1115.63 2833.76,1120.12 2823.1,1125.42C2822.8,1130.73 2822.62,1135.48 2822.47,1141.76C2822.45,1142.89 2821.56,1159.75 2821.91,1181.42C2821.93,1182.66 2821.99,1186.82 2822.3,1193.03C2824,1192.09 2825.82,1191.34 2827.68,1190.81C2837.77,1187.94 2845.53,1192.25 2846.88,1193C2848.23,1193.75 2855.99,1198.06 2858.87,1208.18C2859.75,1211.29 2860.07,1214.63 2859.7,1217.84C2859.06,1223.51 2858.86,1223.52 2856.06,1228.48C2852.99,1233.93 2843.73,1257.41 2825.66,1267.06C2809.08,1275.91 2785.08,1273.19 2771.37,1245.97C2766.6,1236.48 2763.42,1225.16 2760.65,1209.6C2759.49,1203.12 2758.39,1191.32 2758.24,1189.72C2757.94,1186.52 2756.84,1175.54 2756.38,1156.05C2750.68,1157.51 2742.93,1158.89 2732.38,1159.13C2730.91,1159.16 2720.83,1159.2 2710.61,1157.49C2703.32,1156.27 2700.12,1155.38 2698.88,1155ZM2695.22,1122.19L2695.92,1122.35L2696.19,1121.09C2695.85,1121.45 2695.53,1121.82 2695.22,1122.19ZM2970.02,1143.8C2968.59,1164.67 2967.3,1177.64 2965.62,1193.66C2965.57,1194.21 2963.85,1204.87 2963.8,1205.17C2963.6,1206.29 2961.01,1219.75 2960.78,1220.86C2960.44,1222.53 2959.42,1226.98 2957.2,1237.46C2956.97,1238.56 2957,1238.56 2956.95,1239.68C2956.53,1250.08 2949.97,1256.15 2948.84,1257.2C2941.16,1264.31 2932.27,1264 2930.73,1263.94C2929.18,1263.89 2920.33,1263.58 2913.17,1255.84C2910.97,1253.47 2909.18,1250.63 2908.05,1247.6C2906.01,1242.12 2906.22,1242.01 2906.5,1236.17C2906.55,1235.12 2905.65,1222.26 2905.37,1213.7C2905.08,1204.93 2904.97,1204.94 2904.85,1196.17C2904.77,1191.02 2904.7,1191.03 2904.86,1185.87C2905.07,1179.03 2905.83,1149.3 2905.97,1125.99C2906.04,1113.67 2906.34,1107.7 2906.33,1082.53C2906.33,1080.55 2906.53,1068.69 2906.5,1049.28C2906.49,1047.93 2906.49,1045.17 2906.88,1032.45C2906.88,1032.44 2907.12,1027.26 2907.41,1020.11C2907.62,1014.9 2907.96,1011.34 2908.94,992.644C2909.38,984.385 2910.13,977.415 2912.02,945.685C2912.12,943.94 2912.31,943.064 2914.07,927.392C2914.44,924.099 2916.27,909.832 2916.42,908.416C2916.68,905.898 2916.43,903.271 2917.21,900.864C2919.62,893.447 2925.93,890.526 2926.99,890.035C2934.62,886.504 2941.01,888.846 2942.15,889.264C2949.43,891.931 2952.46,898 2952.98,899.044C2953.43,899.947 2953.83,900.74 2956.17,911.239C2956.74,913.752 2960.45,930.397 2962.74,942.745C2962.8,943.087 2967.9,980.627 2968.94,991.224C2971.13,1013.4 2971.37,1017 2971.51,1019.24C2972.38,1032.38 2972.37,1032.37 2972.84,1045.53C2972.86,1045.97 2972.99,1061.47 2972.78,1077.22C2973.53,1076.65 2974.28,1076.09 2975.04,1075.54C2983.3,1069.53 3007.32,1052.87 3033.67,1061.9C3042.63,1064.97 3059.69,1075.06 3068.34,1101.11C3072.27,1112.95 3072.55,1129.26 3072.6,1131.74C3073.04,1157.04 3067.85,1184.71 3065.41,1206.97C3068.49,1206.39 3071.72,1206.43 3074.79,1207.02C3077.97,1207.63 3081.09,1208.85 3083.8,1210.62C3083.82,1210.63 3090.95,1217.61 3090.96,1217.62C3092.25,1220.7 3094.14,1223.59 3094.81,1226.85C3095.46,1230.02 3095.44,1233.38 3094.83,1236.56C3094.22,1239.73 3093,1242.86 3091.23,1245.56C3088.08,1250.36 3087.89,1250.27 3083.13,1253.46C3080.98,1254.9 3070.39,1266.19 3055.9,1271.06C3033.47,1278.59 3008.55,1268.71 3000.71,1238.53C2999.96,1235.65 2997.54,1227.02 2999.08,1203.92C3000.36,1184.88 3008.55,1144.43 3005.6,1124.16C2994.23,1128.79 2982.96,1136.48 2981.32,1137.4C2980.9,1137.64 2977.25,1139.56 2970.39,1143.58C2970.27,1143.65 2970.14,1143.72 2970.02,1143.8ZM2138.04,991.508C2139.57,991.471 2141.71,991.336 2144.21,990.949C2146.43,990.605 2156.39,987.432 2164.72,979.573L2165.45,978.88C2164.87,979.433 2169.09,975.414 2173.93,973.544C2176.95,972.379 2180.27,971.838 2183.5,971.906C2185.05,971.939 2193.9,972.124 2201.2,979.63C2208.42,987.051 2208.23,996.11 2208.2,997.657C2208.13,1000.89 2207.45,1004.18 2206.15,1007.14C2205.76,1008.04 2203.89,1012.33 2198.8,1016.91C2197.94,1017.68 2185.64,1029.42 2163.6,1037.86C2161.64,1038.61 2161.62,1038.55 2159.69,1039.36C2155.82,1040.97 2137.95,1048.2 2119.43,1046.61C2096.44,1044.65 2080.23,1030.09 2075.06,1010.11C2073.79,1005.23 2071.76,997.086 2072.27,986.063C2072.56,979.729 2073.3,974.82 2075.64,967.215C2076.81,963.386 2079.62,956.841 2082.33,952.373C2089.41,940.714 2096.9,933.916 2098.42,932.543C2108.28,923.591 2118.07,918.055 2122.86,915.483C2123.02,915.401 2130.33,912.041 2138.17,909.824C2143.17,908.411 2146.8,907.685 2147.16,907.592C2149.64,906.951 2152.04,905.839 2154.6,905.676C2155.76,905.602 2162.5,905.174 2168.46,910.241C2169.37,911.021 2174.6,915.471 2175.23,923.673C2175.32,924.837 2175.84,931.617 2170.67,937.532C2170.1,938.175 2169.13,937.022 2162.51,944.442C2161.01,946.133 2157.25,950.603 2154.95,953.738C2153.66,955.502 2153.72,955.543 2152.33,957.228C2146.52,964.306 2144.45,968.783 2142.16,973.934C2140.88,976.84 2140.5,978.312 2139.54,982.578C2139.12,984.453 2138.75,987.456 2138.38,989.298C2138.32,989.569 2138.18,990.469 2138.04,991.508ZM2410.18,1183.71C2411.26,1184.82 2417.4,1191.22 2417.18,1201.74C2417.11,1204.97 2416.43,1208.26 2415.13,1211.22C2412.77,1216.62 2412.5,1216.53 2408.23,1220.59C2402.93,1225.64 2382.18,1249.68 2350.05,1271.43C2327.58,1286.64 2310.21,1293.96 2296.73,1298.45C2282.35,1303.24 2273.41,1304.38 2271.34,1304.65C2211.97,1312.25 2166.73,1280.3 2158.69,1221.68C2153.87,1186.49 2161.26,1151.73 2165.81,1133.85C2165.87,1133.63 2169.01,1122.03 2174.85,1106.53C2177.15,1100.43 2186.53,1074.93 2206.68,1042.3C2224.52,1013.42 2243.83,992.733 2247.5,988.798C2255.45,980.282 2263.06,973.193 2266.12,970.658C2290.15,950.776 2310.02,941.795 2324.95,937.252C2330.92,935.438 2333.39,935.513 2334.13,935.535C2335.3,935.571 2342.03,935.776 2347.46,941.479C2348.29,942.349 2353.07,947.364 2352.84,955.508C2352.8,956.675 2352.61,963.4 2346.89,968.835C2344.01,971.572 2339.84,973.164 2340.41,972.945C2342.75,972.053 2324.1,979.428 2301.36,1006.76C2297.65,1011.23 2279.3,1030.44 2260.25,1068.2C2259.69,1069.31 2248.5,1090.06 2238.31,1120.75C2233.73,1134.56 2231.96,1142.63 2229.33,1153.56C2228.91,1155.31 2220.39,1188.11 2224.75,1214.54C2227.84,1233.26 2237.55,1237.94 2249.27,1239.14C2255.89,1239.81 2262.99,1238.79 2264.18,1238.62C2265.82,1238.38 2279.58,1237.83 2303.86,1227.62C2338.1,1213.22 2368.95,1187.66 2370.09,1186.75C2372.48,1184.82 2372.48,1184.82 2374.45,1182.93C2381.99,1175.74 2390.93,1175.93 2392.47,1175.96C2402.96,1176.18 2409.11,1182.59 2410.18,1183.71ZM2534.97,1227.48C2534.48,1227.9 2534.16,1228.16 2534.02,1228.28C2531.77,1230.2 2527.32,1233.55 2522.56,1236.03C2466.15,1265.42 2410.24,1225.62 2426.14,1167.86C2432.76,1143.81 2448.51,1123.21 2468.76,1107.41C2469.48,1106.84 2484.14,1095.87 2502.34,1089.33C2524.34,1081.44 2533.94,1085.22 2537.28,1086.55C2540.68,1087.91 2543.1,1089.93 2544.78,1091.83C2545.31,1091.45 2545.72,1091.19 2545.96,1091.04C2556.37,1084.51 2566.39,1087.65 2568.09,1088.19C2579.82,1091.87 2583.92,1101.55 2584.62,1103.19C2585.21,1104.6 2585.69,1106.07 2586.04,1107.56C2587.89,1115.55 2588.69,1156.35 2591.2,1182.31C2592.79,1198.79 2594.66,1207.89 2595.88,1212.54C2598.95,1212.17 2602.12,1212.35 2605.13,1213.02C2608.52,1213.78 2611.85,1215.2 2614.69,1217.19C2614.72,1217.21 2622.16,1224.94 2622.16,1224.95C2623.44,1228.3 2625.39,1231.47 2626,1235.01C2626.59,1238.43 2626.45,1242.04 2625.7,1245.44C2624.93,1248.84 2623.52,1252.16 2621.52,1255.01C2617.83,1260.29 2617.61,1260.19 2612.08,1263.51C2608.62,1265.59 2605.1,1268.23 2598.92,1270.58C2576.67,1279.05 2553.04,1269.6 2540.69,1244.26C2537.79,1238.31 2536.89,1235.14 2536.66,1234.32C2536.02,1232.04 2535.46,1229.76 2534.97,1227.48ZM2532.09,1122.66C2530.73,1122.5 2529.56,1122.21 2528.02,1122.16C2528.25,1123.99 2528.3,1124.17 2527.88,1124.44C2526.45,1125.38 2514.89,1131.31 2502.75,1145.1C2501.58,1146.43 2485.17,1162.05 2483.27,1180.85C2485.05,1180.38 2488.19,1179.38 2491.52,1177.39C2492.22,1176.97 2497.14,1174.62 2497.38,1174.5C2502.2,1172.03 2509.45,1168.2 2518.37,1157.82C2518.84,1157.28 2521.67,1153.58 2522.71,1151.75C2524.42,1148.72 2525.14,1147.47 2527.14,1141.8C2529.61,1134.81 2531.11,1128.3 2532.09,1122.66ZM2523.49,1122.64L2523.31,1122.67L2523.45,1122.73L2523.49,1122.64ZM3309.26,1135.5C3322.89,1150.15 3339.87,1168.63 3353.36,1189.37C3370.51,1215.73 3403.98,1277.7 3356.94,1354.04C3334.41,1390.62 3300.32,1403.59 3290.07,1407.38C3240.75,1425.59 3174.7,1423.12 3083.33,1416.58C3032.65,1412.96 2977.96,1408.46 2906.31,1404.68C2811.38,1399.67 2705.8,1398.61 2591.1,1405.9C2554.11,1408.26 2524.37,1410.98 2506.97,1412.66C2502.95,1413.05 2498.13,1413.75 2497.98,1413.74C2495.5,1413.56 2492.95,1413.85 2490.55,1413.19C2489.46,1412.89 2483.16,1411.16 2479.34,1404.51C2478.75,1403.49 2475.39,1397.64 2477.49,1390.01C2479.52,1382.61 2485.19,1379.35 2486.17,1378.79C2488.32,1377.55 2490.83,1377.05 2493.22,1376.39C2494.16,1376.13 2494.2,1376.41 2505.35,1374.75C2623.03,1357.15 2717.32,1351.06 2791.41,1348.59C2842.1,1346.9 2891.42,1347.11 2932.91,1347.89C2936.98,1347.97 2981.2,1349.08 3034.47,1351.68C3148.62,1357.25 3228.22,1362.82 3271.51,1343.89C3290.14,1335.75 3298.81,1323.85 3306.21,1308.73C3323.87,1272.59 3313.16,1241.38 3281.45,1203.07C3274.04,1213.95 3265.73,1223.78 3257.16,1231.89C3232.58,1255.17 3200.35,1270 3167.54,1262.28C3162.05,1260.98 3156.36,1258.29 3155.43,1257.85C3147.2,1253.96 3127.36,1242.64 3117.12,1214.44C3103.95,1178.17 3111.66,1136.15 3122.45,1101.54C3124.38,1095.35 3125.83,1093.35 3126.28,1092.73C3126.97,1091.79 3130.92,1086.34 3138.68,1085.04C3139.87,1084.84 3146.69,1083.7 3153.32,1088.47C3154.27,1089.16 3159.74,1093.1 3161.01,1100.88C3161.13,1101.61 3161.43,1103.49 3160.53,1110.17C3160.18,1112.77 3153.62,1154.82 3163.64,1183.62C3164.24,1185.35 3167.18,1194 3173.16,1199.76C3176.98,1203.44 3180.16,1203.32 3181.82,1203.53C3193.88,1205.1 3215.96,1191.73 3233.89,1159.44C3235.21,1157.06 3236.39,1154.76 3237.45,1152.55C3227.55,1139.18 3221.35,1125.97 3222.35,1110.87C3222.52,1108.29 3223.21,1092.04 3239.51,1078.14C3266.35,1055.24 3306.82,1069.98 3310.07,1114.77C3310.56,1121.53 3310.25,1128.48 3309.26,1135.5Z" style="fill:#fbf6ec;"/>
            </g>
        </g>
    </g>
</svg>
